<?xml version="1.0"?>
<svg xmlns="http://www.w3.org/2000/svg" xmlns:xlink="http://www.w3.org/1999/xlink" xmlns:svgjs="http://svgjs.com/svgjs" version="1.1" width="512" height="512" x="0" y="0" viewBox="0 0 64 64" style="enable-background:new 0 0 512 512" xml:space="preserve" class=""><g><path xmlns="http://www.w3.org/2000/svg" d="M47.977,44.555v-7.11a3.445,3.445,0,1,1,6.89,0v7.11a3.445,3.445,0,1,1-6.89,0ZM63,29V60a3,3,0,0,1-3,3H22a3,3,0,0,1-3-3V29a3,3,0,0,1,3-3H60A3,3,0,0,1,63,29ZM45.977,44.555a5.445,5.445,0,1,0,10.89,0v-7.11a5.445,5.445,0,1,0-10.89,0Zm-12.854,0a5.446,5.446,0,0,0,10.891,0v-7.11a5.446,5.446,0,0,0-10.891,0ZM24.793,33a1,1,0,0,0,1,1h2.42V49a1,1,0,0,0,2,0V33a1,1,0,0,0-1-1h-3.42A1,1,0,0,0,24.793,33ZM57,54a1,1,0,0,0-1-1,177.851,177.851,0,0,0-30.2,3.02,1,1,0,0,0,.392,1.96A175.823,175.823,0,0,1,56,55,1,1,0,0,0,57,54ZM38.568,48a3.45,3.45,0,0,0,3.446-3.445v-7.11a3.446,3.446,0,0,0-6.891,0v7.11A3.45,3.45,0,0,0,38.568,48Z" style="" fill="#8d8895" data-original="#c4a2fc" class=""/><path xmlns="http://www.w3.org/2000/svg" d="M48,1H4A3,3,0,0,0,1,4V21a3,3,0,0,0,3,3H48a3,3,0,0,0,3-3V4A3,3,0,0,0,48,1ZM3,21V4A1,1,0,0,1,4,3H22V22H4A1,1,0,0,1,3,21Zm46,0a1,1,0,0,1-1,1H24V3H48a1,1,0,0,1,1,1ZM17.832,8.555l-6,9a1,1,0,0,1-1.689-.04l-3-5a1,1,0,1,1,1.714-1.03l2.187,3.646,5.124-7.686a1,1,0,0,1,1.664,1.11ZM45,9a1,1,0,0,1-1,1H29a1,1,0,0,1,0-2H44A1,1,0,0,1,45,9Zm-6,7a1,1,0,0,1-1,1H29a1,1,0,0,1,0-2h9A1,1,0,0,1,39,16Zm9,12H4a3,3,0,0,0-3,3V48a3,3,0,0,0,3,3H48a3,3,0,0,0,3-3V31A3,3,0,0,0,48,28ZM3,48V31a1,1,0,0,1,1-1H22V49H4A1,1,0,0,1,3,48Zm46,0a1,1,0,0,1-1,1H24V30H48a1,1,0,0,1,1,1ZM45,36a1,1,0,0,1-1,1H29a1,1,0,0,1,0-2H44A1,1,0,0,1,45,36Zm-6,7a1,1,0,0,1-1,1H29a1,1,0,0,1,0-2h9A1,1,0,0,1,39,43Zm-21.293.293a1,1,0,0,1-1.414,1.414L12.5,40.914,8.707,44.707a1,1,0,1,1-1.414-1.414L11.086,39.5,7.293,35.707a1,1,0,1,1,1.414-1.414L12.5,38.086l3.793-3.793a1,1,0,0,1,1.414,1.414L13.914,39.5Z" style="" fill="#0c1b38" data-original="#151a6a" class=""/></g></svg>
